<svg id="Layer_1" data-name="Layer 1" xmlns="http://www.w3.org/2000/svg" viewBox="0 0 1044 1280"><defs><style>.cls-1{fill:#fff;}</style></defs><path d="M-288,623V80c1.66-11.5,3.43-23,4.95-34.49,3.54-26.89,6.94-53.79,10.44-80.67,3.82-29.36,7.73-58.71,11.54-88.07,3.51-27.06,6.93-54.12,10.44-81.18,3.52-27.21,7.21-54.41,10.61-81.64,2-16.37,4.56-32.56,10.43-48.11,12.33-32.69,35.17-56,64.85-73.23,36.33-21.07,75.3-35.68,115.72-46.7A1083.91,1083.91,0,0,1,81.61-481.68c35.71-5.13,71.69-8.42,107.56-12.4,8.24-.92,16.55-1.29,24.83-1.92h41c2.12.28,4.24.68,6.37.82,12.95.83,26,.94,38.86,2.52,34.33,4.19,68.67,8.38,102.83,13.72a995.28,995.28,0,0,1,132.57,30.09c37.7,11.32,74,26,107.16,47.56,28.81,18.74,49.65,44.06,58,77.72,4.93,19.91,7.23,40.52,10.13,60.89,3.84,27,7.1,54.08,10.61,81.13q4.74,36.6,9.5,73.21L741.5-27.7c3.17,24.41,6.3,48.82,9.55,73.22,1.53,11.51,3.29,23,5,34.48V623a22.93,22.93,0,0,0-2.47-.24q-40.46,0-80.9,0a30.28,30.28,0,0,0-3.53.44c0,25.26.08,50.21-.05,75.15,0,7.47-.07,15-1.16,22.37-3.85,26.06-17.38,45.4-41.69,56.16-7.62,3.38-16.11,4.8-24.2,7.12H585c-1.26-.31-2.5-.72-3.78-.93-15.83-2.66-29.87-9-41.39-20.35-15.93-15.76-21.61-35.49-21.77-57.18-.18-25.66,0-51.32,0-77V623H-50v5.64c0,20.33.11,40.65,0,61-.07,10,.16,20.06-1.1,29.92-3.47,27.16-17.48,47.11-42.93,58-7.23,3.09-15.24,4.35-22.9,6.45h-17a17.58,17.58,0,0,0-2.76-.86c-36-4.8-62.34-33.54-63.19-69.85-.66-28.12-.38-56.27-.51-84.4,0-1.93,0-3.85,0-6.15H-212.1ZM234,124.86q192,0,384,0a126.39,126.39,0,0,0,14.94-.9c15.45-1.83,26.23-11.51,30.3-26.43,2.85-10.43,1.8-20.81.36-31.22q-5.73-41.52-11.56-83-5.68-41-11.34-82c-3.87-27.85-7.63-55.7-11.72-83.51-2.35-16-4.51-32-8.08-47.66-4.38-19.23-15.79-33-35.81-37.46a107.39,107.39,0,0,0-23.25-2.46q-325.21-.19-650.45-.06a187,187,0,0,0-18.93.92c-21.58,2.18-37.08,12.88-43.41,34-3.7,12.34-5.92,25.21-7.84,38-4.52,30.1-8.45,60.29-12.63,90.44q-5.79,41.76-11.61,83.52c-3.85,27.51-8,55-11.46,82.54-1.36,11-2.12,22.26-1.19,33.24,1.34,16,11.78,26.91,27.42,30.29A87.16,87.16,0,0,0-150,124.78Q42,124.93,234,124.86Zm-.33-458.5q105.46,0,210.94,0a59.31,59.31,0,0,0,11.93-.81c16-3.31,25.08-17.47,23.92-32.77C479-386.22,467.27-397,449-397q-214.94-.06-429.87,0c-12.18,0-21.87,4.67-27.5,15.62-6,11.65-5.53,23.5,1.64,34.61,6.75,10.47,17.11,13.28,29,13.27Q127.93-333.76,233.65-333.64Zm432,714.56a72.07,72.07,0,0,0-72.34-71.87c-40,.15-72.59,32.83-72.34,72.56.25,39.47,33.89,72.77,73,72.27C633.55,453.38,665.93,420.41,665.67,380.92ZM-53,381.05a72,72,0,0,0-72.16-72c-39.78.09-72.33,32.39-72.51,71.95s33.52,73.22,73,72.9S-53,420.79-53,381.05Z" transform="translate(288 496)"/><path class="cls-1" d="M234,124.86q-192,0-384-.08A87.16,87.16,0,0,1-168.31,123c-15.64-3.38-26.08-14.24-27.42-30.29-.93-11-.17-22.27,1.19-33.24,3.41-27.57,7.61-55,11.46-82.54q5.84-41.76,11.61-83.52c4.18-30.15,8.11-60.34,12.63-90.44,1.92-12.78,4.14-25.65,7.84-38,6.33-21.13,21.83-31.83,43.41-34A187,187,0,0,1-88.66-270q325.23-.07,650.45.06A107.39,107.39,0,0,1,585-267.44c20,4.49,31.43,18.23,35.81,37.46,3.57,15.68,5.73,31.71,8.08,47.66,4.09,27.81,7.85,55.66,11.72,83.51q5.7,41,11.34,82.05,5.76,41.52,11.56,83c1.44,10.41,2.49,20.79-.36,31.22-4.07,14.92-14.85,24.6-30.3,26.43a126.39,126.39,0,0,1-14.94.9Q426,124.9,234,124.86Z" transform="translate(288 496)"/><path class="cls-1" d="M233.65-333.64q-105.72,0-211.43.06c-11.86,0-22.22-2.8-29-13.27-7.17-11.11-7.64-23-1.64-34.61,5.63-11,15.32-15.62,27.5-15.62Q234-397,449-397c18.29,0,30,10.82,31.46,29.79,1.16,15.3-7.92,29.46-23.92,32.77a59.31,59.31,0,0,1-11.93.81Q339.13-333.61,233.65-333.64Z" transform="translate(288 496)"/><path class="cls-1" d="M665.67,380.92c.26,39.49-32.12,72.46-71.66,73-39.13.5-72.77-32.8-73-72.27-.25-39.73,32.34-72.41,72.34-72.56A72.07,72.07,0,0,1,665.67,380.92Z" transform="translate(288 496)"/><path class="cls-1" d="M-53,381.05c0,39.74-32.25,72.51-71.71,72.84s-73.13-33.34-73-72.9,32.73-71.86,72.51-71.95A72,72,0,0,1-53,381.05Z" transform="translate(288 496)"/></svg>